<svg width="140" height="32" viewBox="0 0 140 32" fill="none" xmlns="http://www.w3.org/2000/svg">
  <path d="M9.83333 4V28" stroke="url(#paint0_linear_12_52)" stroke-width="3" stroke-linecap="round"/>
  <path d="M16.5 4V28" stroke="url(#paint1_linear_12_52)" stroke-width="3" stroke-linecap="round"/>
  <path d="M3.16667 4V28" stroke="url(#paint2_linear_12_52)" stroke-width="3" stroke-linecap="round"/>
  <path d="M23.1667 4V28" stroke="url(#paint3_linear_12_52)" stroke-width="3" stroke-linecap="round"/>
  <rect x="1" y="8" width="24.3333" height="16" rx="2" stroke="url(#paint4_linear_12_52)" stroke-width="2"/>
  <path d="M43.64 24H39.08V8.6H43.64C45.5067 8.6 47.1067 9.04 48.44 9.92C49.7733 10.7867 50.7867 11.9867 51.48 13.52C52.1733 15.04 52.52 16.7733 52.52 18.72C52.52 20.6667 52.1733 22.4133 51.48 23.96C50.7867 25.4933 49.7733 26.7067 48.44 27.6C47.1067 28.48 45.5067 28.92 43.64 28.92H39.08V24ZM43.64 24C44.84 24 45.8933 23.7067 46.8 23.12C47.7067 22.52 48.4 21.68 48.88 20.6C49.3733 19.52 49.62 18.24 49.62 16.76C49.62 15.2667 49.3733 13.9867 48.88 12.92C48.4 11.8533 47.7067 11.0267 46.8 10.44C45.8933 9.84 44.84 9.54 43.64 9.54H42.08V24H43.64Z" fill="url(#paint5_linear_12_52)"/>
  <path d="M64.1297 21.48C64.1297 22.1867 64.2897 22.7867 64.6097 23.28C64.943 23.76 65.4097 24.1333 66.0097 24.4C66.6097 24.6533 67.3097 24.78 68.1097 24.78C68.7097 24.78 69.2497 24.7067 69.7297 24.56C70.2097 24.4 70.623 24.1867 70.9697 23.92C71.3297 23.64 71.643 23.32 71.9097 22.96L74.1897 25.28C73.7497 25.9333 73.1697 26.5067 72.4497 27C71.743 27.48 70.9297 27.8533 70.0097 28.12C69.0897 28.3867 68.103 28.52 67.0497 28.52C65.503 28.52 64.1297 28.2 62.9297 27.56C61.743 26.9067 60.823 25.9867 60.1697 24.8C59.5297 23.6133 59.2097 22.2267 59.2097 20.64C59.2097 19.0533 59.5297 17.6667 60.1697 16.48C60.823 15.2933 61.723 14.3733 62.8697 13.72C64.0297 13.0667 65.343 12.74 66.8097 12.74C68.223 12.74 69.4897 13.0533 70.6097 13.68C71.7297 14.2933 72.6097 15.1733 73.2497 16.32C73.8897 17.4667 74.2097 18.8267 74.2097 20.4C74.2097 20.6133 74.2097 20.8267 74.2097 21.04C74.2097 21.24 74.1963 21.3733 74.1697 21.44H64.1297V21.48ZM66.7897 16.24C65.5763 16.24 64.5897 16.5467 63.8297 17.16C63.0697 17.7733 62.6497 18.6133 62.5697 19.68H70.9697C70.903 18.64 70.4963 17.8 69.7497 17.16C69.003 16.5467 68.003 16.24 66.7897 16.24Z" fill="url(#paint6_linear_12_52)"/>
  <path d="M90.2284 19.96V28.24H86.1884V20.36C86.1884 19.2267 85.9618 18.3867 85.5084 17.84C85.0551 17.2933 84.4151 17.02 83.5884 17.02C83.0684 17.02 82.5751 17.1267 82.1084 17.34C81.6551 17.5533 81.2818 17.8533 80.9884 18.24C80.6951 18.6267 80.5351 19.08 80.5084 19.6V28.24H76.4684V13.02H80.5084V15.12C80.9618 14.3467 81.6018 13.7467 82.4284 13.32C83.2551 12.8933 84.2284 12.68 85.3484 12.68C86.6018 12.68 87.6684 12.9733 88.5484 13.56C89.4418 14.1467 90.1218 14.96 90.5884 16C91.0551 17.0267 91.2884 18.2 91.2884 19.52V28.24H90.2284V19.96Z" fill="url(#paint7_linear_12_52)"/>
  <path d="M96.8641 8.72C96.1174 8.72 95.5174 8.49333 95.0641 8.04C94.6107 7.57333 94.3841 6.98667 94.3841 6.28C94.3841 5.57333 94.6107 4.98667 95.0641 4.52C95.5174 4.05333 96.1174 3.82 96.8641 3.82C97.6107 3.82 98.2174 4.05333 98.6841 4.52C99.1507 4.97333 99.3841 5.56 99.3841 6.28C99.3841 6.98667 99.1507 7.57333 98.6841 8.04C98.2174 8.49333 97.6107 8.72 96.8641 8.72ZM98.8841 13.02V28.24H94.8441V13.02H98.8841Z" fill="url(#paint8_linear_12_52)"/>
  <path d="M114.454 21.48C114.454 22.1867 114.614 22.7867 114.934 23.28C115.267 23.76 115.734 24.1333 116.334 24.4C116.934 24.6533 117.634 24.78 118.434 24.78C119.034 24.78 119.574 24.7067 120.054 24.56C120.534 24.4 120.947 24.1867 121.294 23.92C121.654 23.64 121.967 23.32 122.234 22.96L124.514 25.28C124.074 25.9333 123.494 26.5067 122.774 27C122.067 27.48 121.254 27.8533 120.334 28.12C119.414 28.3867 118.427 28.52 117.374 28.52C115.827 28.52 114.454 28.2 113.254 27.56C112.067 26.9067 111.147 25.9867 110.494 24.8C109.854 23.6133 109.534 22.2267 109.534 20.64C109.534 19.0533 109.854 17.6667 110.494 16.48C111.147 15.2933 112.047 14.3733 113.194 13.72C114.354 13.0667 115.667 12.74 117.134 12.74C118.547 12.74 119.814 13.0533 120.934 13.68C122.054 14.2933 122.934 15.1733 123.574 16.32C124.214 17.4667 124.534 18.8267 124.534 20.4C124.534 20.6133 124.534 20.8267 124.534 21.04C124.534 21.24 124.52 21.3733 124.494 21.44H114.454V21.48ZM117.114 16.24C115.9 16.24 114.914 16.5467 114.154 17.16C113.394 17.7733 112.974 18.6133 112.894 19.68H121.294C121.227 18.64 120.82 17.8 120.074 17.16C119.327 16.5467 118.327 16.24 117.114 16.24Z" fill="url(#paint9_linear_12_52)"/>
  <path d="M138.503 13.02L131.663 30.24C131.263 31.28 130.69 32.04 129.943 32.52C129.197 33 128.343 33.24 127.383 33.24C126.85 33.24 126.33 33.1733 125.823 33.04C125.317 32.9067 124.877 32.72 124.503 32.48L125.743 29.08C126.037 29.2267 126.33 29.3467 126.623 29.44C126.917 29.5333 127.21 29.58 127.503 29.58C127.93 29.58 128.277 29.48 128.543 29.28C128.823 29.08 129.063 28.76 129.263 28.32L129.583 27.52L123.383 13.02H127.703L131.863 23.72L136.023 13.02H138.503Z" fill="url(#paint10_linear_12_52)"/>
  <defs>
    <linearGradient id="paint0_linear_12_52" x1="10.3333" y1="4" x2="10.3333" y2="28" gradientUnits="userSpaceOnUse">
      <stop stop-color="#6A37FF"/>
      <stop offset="1" stop-color="#9775FA"/>
    </linearGradient>
    <linearGradient id="paint1_linear_12_52" x1="17" y1="4" x2="17" y2="28" gradientUnits="userSpaceOnUse">
      <stop stop-color="#6A37FF"/>
      <stop offset="1" stop-color="#9775FA"/>
    </linearGradient>
    <linearGradient id="paint2_linear_12_52" x1="3.66667" y1="4" x2="3.66667" y2="28" gradientUnits="userSpaceOnUse">
      <stop stop-color="#6A37FF"/>
      <stop offset="1" stop-color="#9775FA"/>
    </linearGradient>
    <linearGradient id="paint3_linear_12_52" x1="23.6667" y1="4" x2="23.6667" y2="28" gradientUnits="userSpaceOnUse">
      <stop stop-color="#6A37FF"/>
      <stop offset="1" stop-color="#9775FA"/>
    </linearGradient>
    <linearGradient id="paint4_linear_12_52" x1="13.1667" y1="7" x2="13.1667" y2="25" gradientUnits="userSpaceOnUse">
      <stop stop-color="#6A37FF"/>
      <stop offset="1" stop-color="#9775FA"/>
    </linearGradient>
    <linearGradient id="paint5_linear_12_52" x1="45.8" y1="8.6" x2="45.8" y2="28.92" gradientUnits="userSpaceOnUse">
      <stop stop-color="#6A37FF"/>
      <stop offset="1" stop-color="#9775FA"/>
    </linearGradient>
    <linearGradient id="paint6_linear_12_52" x1="66.7097" y1="12.74" x2="66.7097" y2="28.52" gradientUnits="userSpaceOnUse">
      <stop stop-color="#6A37FF"/>
      <stop offset="1" stop-color="#9775FA"/>
    </linearGradient>
    <linearGradient id="paint7_linear_12_52" x1="83.8784" y1="12.68" x2="83.8784" y2="28.24" gradientUnits="userSpaceOnUse">
      <stop stop-color="#6A37FF"/>
      <stop offset="1" stop-color="#9775FA"/>
    </linearGradient>
    <linearGradient id="paint8_linear_12_52" x1="96.8841" y1="3.82" x2="96.8841" y2="28.24" gradientUnits="userSpaceOnUse">
      <stop stop-color="#6A37FF"/>
      <stop offset="1" stop-color="#9775FA"/>
    </linearGradient>
    <linearGradient id="paint9_linear_12_52" x1="117.034" y1="12.74" x2="117.034" y2="28.52" gradientUnits="userSpaceOnUse">
      <stop stop-color="#6A37FF"/>
      <stop offset="1" stop-color="#9775FA"/>
    </linearGradient>
    <linearGradient id="paint10_linear_12_52" x1="131.503" y1="13.02" x2="131.503" y2="33.24" gradientUnits="userSpaceOnUse">
      <stop stop-color="#6A37FF"/>
      <stop offset="1" stop-color="#9775FA"/>
    </linearGradient>
  </defs>
</svg>